<svg version="1.1" id="Layer_1" xmlns="http://www.w3.org/2000/svg" xmlns:xlink="http://www.w3.org/1999/xlink" x="0px" y="0px"
	 width="100%" viewBox="0 0 500 500" enable-background="new 0 0 500 500" xml:space="preserve">
<path fill="#000000" opacity="1.000000" stroke="none" 
	d="
M330.000000,501.000000 
	C220.000031,501.000000 110.500053,501.000000 1.000059,501.000000 
	C1.000039,334.333405 1.000039,167.666794 1.000020,1.000148 
	C167.666565,1.000099 334.333130,1.000099 500.999756,1.000049 
	C500.999847,167.666519 500.999847,334.333038 500.999939,500.999786 
	C444.166656,501.000000 387.333344,501.000000 330.000000,501.000000 
M244.819763,154.366180 
	C244.171188,154.562317 243.522629,154.758453 242.234665,154.719910 
	C236.182358,151.451782 230.130051,148.183640 223.669479,144.289795 
	C219.458206,143.362015 215.285995,141.941452 211.027924,141.603958 
	C200.569336,140.774963 189.976898,139.342041 179.190948,144.061371 
	C170.865372,146.398254 163.027466,149.518646 156.683899,157.843552 
	C160.929596,157.843552 163.835190,157.843552 167.510834,158.070999 
	C170.655930,158.744171 173.801010,159.417328 177.306030,160.711929 
	C181.803741,162.482697 186.284317,164.298889 190.805740,166.006866 
	C193.434799,167.000000 192.890839,168.002411 190.214615,169.064621 
	C184.442307,171.759399 178.669983,174.454193 172.220840,177.018814 
	C168.482681,181.278183 164.744537,185.537552 160.383850,190.127121 
	C159.173447,192.099884 157.963028,194.072647 156.173019,196.390945 
	C149.862579,206.126160 149.096619,217.063644 150.201584,228.060242 
	C150.713348,233.153442 153.237411,238.044449 155.005524,243.567566 
	C155.052658,243.749084 155.099808,243.930603 155.282516,244.782669 
	C156.663223,247.502182 157.537827,250.691895 159.533569,252.839996 
	C163.296814,256.890472 167.705780,260.341034 172.175232,264.668579 
	C175.769318,266.825439 179.363403,268.982330 183.272583,271.794037 
	C187.437790,273.108307 191.602997,274.422577 196.709000,275.972565 
	C209.850739,276.637878 222.903107,276.881287 233.795120,266.955353 
	C236.917526,271.313263 238.931519,275.409424 242.104034,278.178040 
	C245.069626,280.766083 245.175125,286.797424 251.664627,285.788116 
	C257.341614,279.648285 263.018585,273.508453 268.700958,267.373657 
	C300.512970,285.823029 336.079468,270.137054 347.491486,241.947815 
	C357.513519,217.192047 348.809296,177.280975 306.711304,167.580551 
	C306.577698,167.108917 306.444092,166.637299 306.310516,166.165665 
	C318.591156,162.760941 330.871826,159.356232 343.452179,155.868439 
	C338.306519,150.927261 331.661102,147.899460 324.786560,145.412491 
	C303.795990,137.818802 283.539520,139.473358 264.338623,150.997391 
	C259.329376,154.003876 254.766266,157.753677 249.396500,160.880371 
	C248.209824,159.581360 247.023163,158.282349 245.961288,156.375717 
	C245.662155,155.900696 245.363022,155.425674 245.006546,154.987518 
	C245.006546,154.987518 245.054489,154.937943 244.819763,154.366180 
M221.984207,301.015228 
	C221.984207,301.015228 222.026398,300.999847 221.946548,300.244354 
	C220.679535,299.880096 219.412521,299.515808 217.285416,299.038330 
	C213.177399,300.325470 209.069366,301.612579 204.294189,303.179504 
	C204.162704,303.281586 204.044083,303.415833 203.895538,303.475281 
	C203.781891,303.520782 203.517731,303.492737 203.511887,303.461517 
	C203.191650,301.755829 202.891678,300.046326 202.595535,298.370544 
	C194.192825,298.370544 185.907822,298.370544 176.992386,298.611267 
	C177.229050,301.609528 177.465698,304.607758 178.628601,307.931030 
	C186.020020,307.931030 193.411438,307.931030 199.761551,307.931030 
	C201.034851,311.596802 201.994232,314.358826 203.004700,317.705200 
	C203.311462,318.145874 203.618240,318.586548 203.999847,319.618073 
	C204.653702,319.771820 205.307556,319.925537 206.265778,320.727814 
	C210.472595,322.501831 214.679413,324.275848 218.968567,326.839355 
	C218.188690,328.233063 217.746887,330.324982 216.568481,330.895569 
	C212.225555,332.998352 213.919724,336.602753 214.608398,339.389069 
	C214.817215,340.233917 218.743561,340.368164 220.974762,340.408752 
	C221.952301,340.426514 222.948975,339.392822 224.650040,338.732788 
	C225.138504,338.144928 225.571426,337.497925 226.124237,336.978577 
	C230.423523,332.939453 230.754532,327.707977 228.671494,322.993256 
	C227.537430,320.426422 223.743423,319.034760 220.445404,316.718964 
	C218.430435,316.176697 216.294724,315.888367 214.441025,315.006958 
	C213.103104,314.370758 211.011765,312.521942 211.225311,311.953369 
	C211.825378,310.355499 213.217468,308.651367 214.740387,307.946167 
	C215.749100,307.479065 217.520859,308.659790 219.021469,309.868195 
	C221.249893,310.893311 223.404251,312.258789 225.744919,312.768127 
	C226.623795,312.959381 228.772751,311.267548 228.900558,310.252625 
	C229.380341,306.442474 228.093842,303.269623 223.986893,302.008698 
	C223.986893,302.008698 224.028336,302.000275 223.819931,301.393463 
	C223.208878,301.252441 222.597824,301.111420 221.984207,301.015228 
M241.929092,331.602234 
	C243.722702,331.730347 245.621735,332.267517 247.272720,331.842133 
	C248.365585,331.560516 249.102737,329.898468 250.000580,327.946106 
	C250.056641,323.964996 250.112701,319.983917 250.871597,316.037781 
	C254.917816,321.705231 259.163086,327.243500 262.949921,333.079254 
	C266.228638,338.131989 269.698730,342.060638 276.722900,339.406433 
	C276.722900,326.204346 276.722900,312.828217 276.722900,299.344635 
	C273.738464,299.344635 271.030914,299.344635 267.991364,299.344635 
	C267.991364,307.425690 267.991364,315.168823 267.991364,324.002991 
	C266.568695,322.019867 265.778107,320.871765 264.941010,319.758606 
	C260.275818,313.554779 255.599335,307.359467 250.468735,300.978760 
	C250.152435,300.797058 249.994232,300.523834 250.450485,300.012512 
	C250.792419,299.857758 250.930756,299.595734 250.695663,298.348358 
	C247.615158,298.348358 244.534668,298.348358 241.385529,298.348358 
	C241.385529,309.349060 241.385529,320.222107 241.929092,331.602234 
M175.428680,331.058563 
	C168.931549,331.038055 162.421661,330.797607 155.947495,331.173035 
	C154.567230,331.253113 152.260056,333.564178 152.250061,334.861847 
	C152.234390,336.895264 153.552261,340.525665 154.755524,340.722107 
	C162.117889,341.924164 169.648163,343.542175 177.626511,339.721741 
	C177.200409,336.956085 176.774307,334.190399 175.428680,331.058563 
M185.517136,340.834534 
	C188.784149,340.834534 192.051178,340.834534 195.963882,340.834534 
	C195.963882,332.259369 196.186340,324.016296 195.738480,315.809814 
	C195.666290,314.487305 192.739426,312.647125 190.891724,312.289886 
	C189.143906,311.951965 187.079773,313.250214 185.050980,314.649963 
	C185.095474,323.123199 185.139984,331.596405 185.517136,340.834534 
M110.185326,340.879333 
	C112.648399,340.926331 115.113037,340.932831 117.574257,341.027832 
	C125.512878,341.334259 133.447678,341.821075 141.388779,341.959198 
	C149.715088,342.104004 151.781265,338.607147 147.826355,330.798462 
	C144.761292,330.798462 141.488617,330.798462 137.927048,330.798462 
	C138.086716,328.984528 138.208832,327.597076 138.365189,325.820801 
	C146.637756,325.820801 154.563980,325.820801 162.676193,325.820801 
	C162.676193,316.348236 162.676193,307.303101 162.676193,297.998840 
	C161.197845,297.998840 160.050156,298.004974 158.902542,297.997833 
	C152.046906,297.955231 152.050339,297.954224 152.015305,304.935699 
	C151.998581,308.266022 151.965927,311.596252 151.022217,314.989746 
	C146.715775,314.980255 142.409317,314.970795 138.019760,314.070282 
	C138.019760,312.145050 138.019760,310.219788 138.019760,307.868225 
	C142.026672,307.868225 145.447662,307.868225 148.951843,307.868225 
	C148.951843,304.340515 148.951843,301.252136 148.951843,297.997101 
	C142.378555,297.997101 136.544403,298.217468 130.737350,297.916077 
	C127.142822,297.729492 126.014091,299.280090 126.019188,302.461639 
	C126.032013,310.457642 126.038315,318.453796 125.999908,326.449646 
	C125.992729,327.943817 125.765366,329.436890 125.639626,330.930481 
	C125.116943,330.902588 124.594269,330.874725 124.071594,330.846832 
	C124.071594,319.929504 124.071594,309.012177 124.071594,298.255066 
	C120.261864,298.255066 117.319496,298.255066 114.072586,298.255066 
	C114.072586,309.122803 114.072586,319.735657 114.072586,330.261017 
	C108.370300,331.757294 107.981644,332.703979 110.185326,340.879333 
M346.246613,308.007690 
	C353.154205,310.622528 356.525604,316.486359 354.905243,323.067810 
	C353.423035,329.088348 348.245178,332.353546 341.200531,331.523438 
	C341.058350,328.823395 340.913757,326.076904 340.772583,323.395508 
	C337.644287,323.395508 334.933716,323.395508 331.871429,323.395508 
	C331.871429,328.488434 331.871429,333.192719 331.871429,338.912170 
	C329.569214,334.144257 327.841614,330.303406 325.873749,326.589935 
	C324.699738,324.374603 324.740204,323.123596 326.960999,321.311768 
	C331.400909,317.689423 331.694092,312.474396 330.645966,307.228516 
	C329.574585,301.866394 325.254791,299.713501 320.644806,299.196167 
	C314.940063,298.556030 309.108887,299.042938 303.394714,299.042938 
	C303.394714,302.015961 303.394714,304.395294 303.394714,307.280579 
	C308.427032,307.280579 313.126099,306.865570 317.683380,307.488098 
	C319.466522,307.731689 320.931488,310.304138 322.541382,311.815918 
	C320.704376,313.206573 318.870087,315.786285 317.029877,315.790527 
	C306.810181,315.814178 296.589050,315.212250 286.372009,314.824585 
	C286.372009,312.021088 286.372009,309.640900 286.372009,306.872925 
	C290.344330,306.872925 293.951477,306.872925 297.659882,306.872925 
	C297.659882,304.086090 297.659882,301.708282 297.659882,299.417358 
	C290.931366,299.417358 284.548553,299.417358 278.316406,299.417358 
	C278.316406,313.098358 278.316406,326.359894 278.316406,339.622375 
	C285.030670,339.622375 291.422455,339.622375 297.719238,339.622375 
	C297.719238,336.971344 297.719238,334.700958 297.719238,331.869812 
	C293.717194,331.869812 289.980865,331.869812 286.247314,331.869812 
	C286.247314,329.031555 286.247314,326.763824 286.247314,324.330139 
	C291.881012,324.330139 297.263885,324.330139 303.219849,324.330139 
	C303.219849,329.714966 303.219849,334.783020 303.219849,339.700653 
	C306.404755,339.700653 309.004120,339.700653 312.106689,339.700653 
	C312.106689,334.356812 312.106689,329.296387 312.106689,322.587006 
	C314.222595,324.638550 315.579926,325.449951 316.192261,326.643524 
	C317.983063,330.134308 319.276337,333.890045 321.192383,337.301697 
	C321.892395,338.548157 323.769012,339.827423 325.153870,339.878845 
	C332.142944,340.138336 339.187927,340.470276 346.134155,339.866272 
	C353.263367,339.246399 359.707642,336.122101 362.325195,328.990295 
	C365.248108,321.026703 365.373352,312.792999 359.316010,305.888916 
	C351.900482,297.436829 341.946808,299.048096 332.246338,299.147766 
	C332.246338,304.965057 332.246338,310.229523 332.246338,315.687988 
	C335.213226,315.687988 337.929199,315.687988 341.150085,315.687988 
	C341.150085,312.655304 341.150085,309.925079 341.150085,306.800385 
	C342.970703,307.301544 344.201050,307.640198 346.246613,308.007690 
M389.961304,310.474426 
	C389.873901,304.290466 385.928711,299.726471 380.051208,299.009918 
	C373.371735,298.195557 366.706055,301.723572 365.105377,306.920471 
	C363.117950,313.373047 365.607117,320.137054 371.218842,322.552155 
	C373.414276,323.496948 376.081787,323.302521 378.356354,324.121368 
	C379.724670,324.614014 381.290161,325.862213 381.756500,327.139801 
	C382.121826,328.140594 381.243713,330.576233 380.387146,330.880646 
	C375.356476,332.668610 377.157227,336.334473 377.253021,339.773102 
	C382.169159,340.480988 385.836639,339.185272 388.468933,335.137054 
	C393.745422,327.022278 389.014679,317.092773 379.316895,315.967682 
	C378.211975,315.839478 376.879913,315.637878 376.128998,314.950500 
	C374.906006,313.831024 373.391235,312.326355 373.300140,310.901093 
	C373.229584,309.797546 374.984009,307.863007 376.223663,307.575226 
	C377.692047,307.234375 380.514069,307.801453 380.951202,308.779053 
	C383.037720,313.445221 386.396454,312.162537 389.961304,310.474426 
z"/>
<path fill="#0097B2" opacity="1.000000" stroke="none" 
	d="
M249.998230,161.162064 
	C254.766266,157.753677 259.329376,154.003876 264.338623,150.997391 
	C283.539520,139.473358 303.795990,137.818802 324.786560,145.412491 
	C331.661102,147.899460 338.306519,150.927261 343.452179,155.868439 
	C330.871826,159.356232 318.591156,162.760941 306.310516,166.165665 
	C306.444092,166.637299 306.577698,167.108917 306.711304,167.580551 
	C348.809296,177.280975 357.513519,217.192047 347.491486,241.947815 
	C336.079468,270.137054 300.512970,285.823029 268.698242,267.371155 
	C263.018585,273.508453 257.341614,279.648285 251.261078,285.427582 
	C250.850357,258.712219 250.843185,232.357407 250.907379,205.538528 
	C250.930756,192.048584 250.882736,179.022705 250.903778,165.637100 
	C250.647964,163.905609 250.323090,162.533844 249.998230,161.162064 
M333.653870,233.809357 
	C335.604156,227.308777 336.219696,220.649460 334.878845,214.023026 
	C330.521332,192.488876 309.929688,178.924896 288.213409,183.931625 
	C272.321411,187.595566 258.852631,203.672089 258.911133,220.227570 
	C258.961029,234.335373 264.671906,245.377289 275.976929,253.240143 
	C282.761414,257.958862 290.864807,260.903290 299.185699,259.819763 
	C315.007385,257.759583 327.155365,250.017746 333.653870,233.809357 
z"/>
<path fill="#FB5B42" opacity="1.000000" stroke="none" 
	d="
M250.835999,206.002594 
	C250.843185,232.357407 250.850357,258.712219 250.941666,285.528687 
	C245.175125,286.797424 245.069626,280.766083 242.104034,278.178040 
	C238.931519,275.409424 236.917526,271.313263 233.795120,266.955353 
	C222.903107,276.881287 209.850739,276.637878 196.640930,275.686584 
	C201.204819,275.270386 205.852921,275.332275 210.463379,274.945465 
	C213.794846,274.665985 217.076294,273.790314 220.380051,273.180542 
	C220.324921,272.736298 220.269775,272.292023 220.214630,271.847778 
	C210.386215,274.803528 200.592636,274.627594 190.766525,272.150726 
	C188.239105,271.513672 185.564484,271.460571 182.957489,271.139191 
	C179.363403,268.982330 175.769318,266.825439 171.927551,264.040833 
	C167.138596,257.488739 162.637711,251.532501 158.008102,245.678040 
	C157.387222,244.892868 156.116669,244.621445 155.146957,244.112122 
	C155.099808,243.930603 155.052658,243.749084 155.119659,243.025681 
	C155.111343,241.189346 155.216675,239.822479 154.831604,238.611542 
	C150.525696,225.070908 150.877884,211.802704 156.839630,198.776276 
	C157.179062,198.034607 156.798233,196.963303 156.752625,196.045410 
	C157.963028,194.072647 159.173447,192.099884 161.014908,189.906876 
	C165.396530,185.507416 169.147110,181.328201 172.897675,177.148987 
	C178.669983,174.454193 184.442307,171.759399 190.857727,169.289322 
	C192.330261,169.645432 193.159683,169.776825 194.118332,170.227005 
	C194.561218,170.917328 194.804977,171.403854 195.198914,171.643372 
	C202.582367,176.132477 202.586090,176.126343 196.634216,182.075989 
	C192.814758,184.062622 189.358856,185.945984 185.547455,187.900635 
	C183.473099,189.309280 181.763397,190.658554 180.033844,191.981918 
	C172.090622,198.059555 167.852844,206.278442 165.910187,216.300446 
	C163.916687,224.630081 166.122421,232.015579 169.323181,239.187576 
	C169.781204,240.213867 171.173691,240.823120 172.236023,241.645996 
	C172.338348,241.666611 172.395966,241.867264 172.275314,242.166962 
	C172.725403,243.249847 173.296127,244.033035 173.969513,245.158142 
	C176.421890,247.642975 178.771606,249.785889 181.194580,252.260651 
	C182.332718,253.110504 183.397598,253.628510 184.593933,254.191437 
	C184.725388,254.236359 184.833511,254.492294 184.891235,254.811462 
	C192.498810,261.529907 210.920273,263.228149 219.163971,258.202271 
	C219.914230,257.744843 220.308426,256.703369 221.049713,255.627106 
	C228.767624,251.192886 234.706802,245.404343 239.485611,237.946991 
	C244.728546,231.668457 245.917099,216.786774 241.996063,210.554672 
	C242.006729,210.550690 242.013458,210.521194 242.051331,210.112625 
	C241.395828,207.823181 240.702454,205.942307 239.901825,203.771027 
	C239.171783,203.000839 238.549026,202.521057 237.648468,201.935867 
	C236.960876,201.201889 236.551117,200.573318 236.369110,199.823517 
	C236.739716,199.140121 237.185333,198.256714 236.980377,198.063492 
	C233.367813,194.658112 229.675919,191.336914 225.733704,187.783081 
	C223.308182,186.716629 221.150192,185.864563 218.819443,184.725006 
	C217.433823,183.873413 216.220963,183.309326 215.011780,182.363846 
	C215.801987,180.752060 216.817245,178.363571 217.340363,178.466904 
	C224.006256,179.783463 231.511307,179.318298 235.685425,186.488403 
	C238.191788,190.793686 240.711975,195.131134 243.687546,199.108826 
	C245.644730,201.725143 248.424561,203.726074 250.835999,206.002594 
z"/>
<path fill="#0097B2" opacity="1.000000" stroke="none" 
	d="
M345.838989,307.993286 
	C344.201050,307.640198 342.970703,307.301544 341.150085,306.800385 
	C341.150085,309.925079 341.150085,312.655304 341.150085,315.687988 
	C337.929199,315.687988 335.213226,315.687988 332.246338,315.687988 
	C332.246338,310.229523 332.246338,304.965057 332.246338,299.147766 
	C341.946808,299.048096 351.900482,297.436829 359.316010,305.888916 
	C365.373352,312.792999 365.248108,321.026703 362.325195,328.990295 
	C359.707642,336.122101 353.263367,339.246399 346.134155,339.866272 
	C339.187927,340.470276 332.142944,340.138336 325.153870,339.878845 
	C323.769012,339.827423 321.892395,338.548157 321.192383,337.301697 
	C319.276337,333.890045 317.983063,330.134308 316.192261,326.643524 
	C315.579926,325.449951 314.222595,324.638550 312.106689,322.587006 
	C312.106689,329.296387 312.106689,334.356812 312.106689,339.700653 
	C309.004120,339.700653 306.404755,339.700653 303.219849,339.700653 
	C303.219849,334.783020 303.219849,329.714966 303.219849,324.330139 
	C297.263885,324.330139 291.881012,324.330139 286.247314,324.330139 
	C286.247314,326.763824 286.247314,329.031555 286.247314,331.869812 
	C289.980865,331.869812 293.717194,331.869812 297.719238,331.869812 
	C297.719238,334.700958 297.719238,336.971344 297.719238,339.622375 
	C291.422455,339.622375 285.030670,339.622375 278.316406,339.622375 
	C278.316406,326.359894 278.316406,313.098358 278.316406,299.417358 
	C284.548553,299.417358 290.931366,299.417358 297.659882,299.417358 
	C297.659882,301.708282 297.659882,304.086090 297.659882,306.872925 
	C293.951477,306.872925 290.344330,306.872925 286.372009,306.872925 
	C286.372009,309.640900 286.372009,312.021088 286.372009,314.824585 
	C296.589050,315.212250 306.810181,315.814178 317.029877,315.790527 
	C318.870087,315.786285 320.704376,313.206573 322.541382,311.815918 
	C320.931488,310.304138 319.466522,307.731689 317.683380,307.488098 
	C313.126099,306.865570 308.427032,307.280579 303.394714,307.280579 
	C303.394714,304.395294 303.394714,302.015961 303.394714,299.042938 
	C309.108887,299.042938 314.940063,298.556030 320.644806,299.196167 
	C325.254791,299.713501 329.574585,301.866394 330.645966,307.228516 
	C331.694092,312.474396 331.400909,317.689423 326.960999,321.311768 
	C324.740204,323.123596 324.699738,324.374603 325.873749,326.589935 
	C327.841614,330.303406 329.569214,334.144257 331.871429,338.912170 
	C331.871429,333.192719 331.871429,328.488434 331.871429,323.395508 
	C334.933716,323.395508 337.644287,323.395508 340.772583,323.395508 
	C340.913757,326.076904 341.058350,328.823395 341.200531,331.523438 
	C348.245178,332.353546 353.423035,329.088348 354.905243,323.067810 
	C356.525604,316.486359 353.154205,310.622528 345.838989,307.993286 
z"/>
<path fill="#FB5B41" opacity="1.000000" stroke="none" 
	d="
M249.697357,161.021210 
	C250.323090,162.533844 250.647964,163.905609 250.520966,165.601410 
	C246.075958,164.142090 241.816238,162.786484 238.139771,160.495102 
	C227.176727,153.662308 215.398666,150.000717 202.473282,150.015411 
	C199.052200,150.019302 197.124588,151.630035 195.780701,154.813293 
	C194.527100,157.782700 192.461182,160.409164 190.381912,163.130798 
	C185.656052,162.080200 181.301071,161.085342 176.946106,160.090500 
	C173.801010,159.417328 170.655930,158.744171 167.016144,157.687500 
	C165.318466,156.607819 164.115494,155.911621 162.300735,154.861359 
	C164.321915,153.486099 165.827011,152.227478 167.528839,151.350693 
	C171.639557,149.232819 175.842148,147.293243 180.436829,145.245850 
	C192.317230,143.321518 203.778854,141.908020 215.386673,143.905853 
	C218.256607,144.399796 221.179306,144.587204 224.077744,144.915512 
	C230.130051,148.183640 236.182358,151.451782 242.917999,154.846619 
	C244.085709,154.961533 244.570099,154.949738 245.054489,154.937943 
	C245.054489,154.937943 245.006546,154.987518 245.077225,155.241608 
	C245.377426,155.991592 245.606964,156.487457 245.836487,156.983337 
	C247.023163,158.282349 248.209824,159.581360 249.697357,161.021210 
z"/>
<path fill="#0097B2" opacity="1.000000" stroke="none" 
	d="
M250.926727,301.161224 
	C255.599335,307.359467 260.275818,313.554779 264.941010,319.758606 
	C265.778107,320.871765 266.568695,322.019867 267.991364,324.002991 
	C267.991364,315.168823 267.991364,307.425690 267.991364,299.344635 
	C271.030914,299.344635 273.738464,299.344635 276.722900,299.344635 
	C276.722900,312.828217 276.722900,326.204346 276.722900,339.406433 
	C269.698730,342.060638 266.228638,338.131989 262.949921,333.079254 
	C259.163086,327.243500 254.917816,321.705231 250.449860,315.596375 
	C250.327652,310.490417 250.627182,305.825806 250.926727,301.161224 
z"/>
<path fill="#0097B2" opacity="1.000000" stroke="none" 
	d="
M389.884491,310.900391 
	C386.396454,312.162537 383.037720,313.445221 380.951202,308.779053 
	C380.514069,307.801453 377.692047,307.234375 376.223663,307.575226 
	C374.984009,307.863007 373.229584,309.797546 373.300140,310.901093 
	C373.391235,312.326355 374.906006,313.831024 376.128998,314.950500 
	C376.879913,315.637878 378.211975,315.839478 379.316895,315.967682 
	C389.014679,317.092773 393.745422,327.022278 388.468933,335.137054 
	C385.836639,339.185272 382.169159,340.480988 377.253021,339.773102 
	C377.157227,336.334473 375.356476,332.668610 380.387146,330.880646 
	C381.243713,330.576233 382.121826,328.140594 381.756500,327.139801 
	C381.290161,325.862213 379.724670,324.614014 378.356354,324.121368 
	C376.081787,323.302521 373.414276,323.496948 371.218842,322.552155 
	C365.607117,320.137054 363.117950,313.373047 365.105377,306.920471 
	C366.706055,301.723572 373.371735,298.195557 380.051208,299.009918 
	C385.928711,299.726471 389.873901,304.290466 389.884491,310.900391 
z"/>
<path fill="#F75B41" opacity="1.000000" stroke="none" 
	d="
M138.102875,314.961304 
	C142.409317,314.970795 146.715775,314.980255 151.700836,315.146454 
	C152.905319,315.531769 153.431168,315.760345 153.989410,316.418457 
	C153.993179,318.569702 153.964584,320.291504 153.667557,322.028229 
	C153.220200,322.053131 153.041245,322.063080 152.477783,322.189026 
	C148.455811,322.486847 144.812210,322.890045 141.182587,322.789398 
	C137.414093,322.684845 135.768478,323.942474 135.804138,327.941650 
	C135.839005,331.853424 137.340164,333.514587 141.165024,333.050598 
	C145.629501,332.508972 147.880875,334.092468 146.456879,338.921509 
	C142.709076,338.986938 139.422546,339.031647 136.136093,339.028137 
	C129.093933,339.020599 129.093948,339.010376 129.039276,331.537659 
	C129.083466,325.940247 128.998474,320.808441 129.154205,315.683899 
	C129.313492,310.441711 129.708740,305.206665 130.468246,299.984039 
	C135.037140,300.008728 139.146774,299.875916 143.234818,300.113892 
	C144.453949,300.184845 146.447815,301.138062 146.602753,301.965088 
	C146.833801,303.198181 145.748306,304.677979 144.770020,306.042023 
	C143.345505,306.023621 142.300552,305.781769 141.417984,306.058228 
	C139.698151,306.596985 136.744110,307.299408 136.661911,308.159668 
	C136.451553,310.360870 137.536163,312.685822 138.102875,314.961304 
z"/>
<path fill="#F85940" opacity="1.000000" stroke="none" 
	d="
M218.886230,326.049866 
	C214.679413,324.275848 210.472595,322.501831 205.893982,320.213013 
	C204.989777,319.474548 204.457382,319.250885 203.925018,319.027222 
	C203.618240,318.586548 203.311462,318.145874 203.069061,317.007233 
	C203.742722,311.839417 204.352036,307.369568 204.961349,302.899719 
	C209.069366,301.612579 213.177399,300.325470 217.855621,299.387146 
	C219.626022,300.157288 220.826218,300.578583 222.026398,300.999847 
	C222.026398,300.999847 221.984207,301.015228 222.156265,301.244751 
	C222.895004,301.649628 223.461670,301.824951 224.028336,302.000275 
	C224.028336,302.000275 223.986893,302.008698 224.019745,302.348389 
	C224.686218,305.173309 225.319824,307.658539 225.953430,310.143799 
	C223.766678,309.729187 221.580795,309.309784 219.391022,308.911743 
	C219.260269,308.887939 219.098404,309.035217 218.951019,309.102844 
	C217.520859,308.659790 215.749100,307.479065 214.740387,307.946167 
	C213.217468,308.651367 211.825378,310.355499 211.225311,311.953369 
	C211.011765,312.521942 213.103104,314.370758 214.441025,315.006958 
	C216.294724,315.888367 218.430435,316.176697 220.884460,317.227295 
	C228.240036,325.350311 228.593384,327.863373 223.635162,336.802917 
	C222.235733,337.440247 221.217773,338.170319 220.120178,338.321259 
	C218.952087,338.481873 216.792603,338.342529 216.672119,337.898407 
	C216.329529,336.635651 216.516068,335.024750 217.052597,333.794250 
	C217.465332,332.847687 218.899521,332.400909 219.570053,331.501251 
	C221.019897,329.556030 222.307785,327.457886 218.886230,326.049866 
z"/>
<path fill="#FD6040" opacity="1.000000" stroke="none" 
	d="
M138.061310,314.515808 
	C137.536163,312.685822 136.451553,310.360870 136.661911,308.159668 
	C136.744110,307.299408 139.698151,306.596985 141.417984,306.058228 
	C142.300552,305.781769 143.345505,306.023621 145.018906,306.258606 
	C149.478851,306.386505 147.881668,303.452332 147.744934,301.878937 
	C147.656998,300.866669 145.875381,299.261353 144.784897,299.203552 
	C139.865311,298.942627 134.921478,299.139130 129.592957,299.237000 
	C128.796188,300.623901 128.052734,301.942291 128.043961,303.265533 
	C127.980591,312.832672 128.065781,322.400818 127.809692,332.211853 
	C125.997917,332.649719 124.480354,332.844360 122.964767,332.566711 
	C122.969765,322.619080 122.932465,313.143402 123.000481,303.668457 
	C123.020760,300.843231 122.642395,298.903229 119.024673,298.903351 
	C115.459953,298.903473 114.969833,300.730774 114.994034,303.615936 
	C115.076271,313.423187 115.032585,323.231445 114.616501,333.047424 
	C108.174736,332.576263 110.348763,337.047272 109.913879,340.084351 
	C109.824318,340.172180 109.645370,340.348053 109.645370,340.348053 
	C107.981644,332.703979 108.370300,331.757294 114.072586,330.261017 
	C114.072586,319.735657 114.072586,309.122803 114.072586,298.255066 
	C117.319496,298.255066 120.261864,298.255066 124.071594,298.255066 
	C124.071594,309.012177 124.071594,319.929504 124.071594,330.846832 
	C124.594269,330.874725 125.116943,330.902588 125.639626,330.930481 
	C125.765366,329.436890 125.992729,327.943817 125.999908,326.449646 
	C126.038315,318.453796 126.032013,310.457642 126.019188,302.461639 
	C126.014091,299.280090 127.142822,297.729492 130.737350,297.916077 
	C136.544403,298.217468 142.378555,297.997101 148.951843,297.997101 
	C148.951843,301.252136 148.951843,304.340515 148.951843,307.868225 
	C145.447662,307.868225 142.026672,307.868225 138.019760,307.868225 
	C138.019760,310.219788 138.019760,312.145050 138.061310,314.515808 
z"/>
<path fill="#FA593F" opacity="1.000000" stroke="none" 
	d="
M250.697723,301.070007 
	C250.627182,305.825806 250.327652,310.490417 250.098434,315.578918 
	C250.112701,319.983917 250.056641,323.964996 249.635895,328.521240 
	C243.647690,330.201630 243.069229,329.806152 243.019882,324.414978 
	C242.965622,318.483856 243.002045,312.551819 243.018692,306.620209 
	C243.037842,299.791718 243.047211,299.791748 249.994110,300.159088 
	C249.994232,300.523834 250.152435,300.797058 250.697723,301.070007 
z"/>
<path fill="#FD6040" opacity="1.000000" stroke="none" 
	d="
M153.957016,315.988953 
	C153.431168,315.760345 152.905319,315.531769 152.159973,315.114868 
	C151.965927,311.596252 151.998581,308.266022 152.015305,304.935699 
	C152.050339,297.954224 152.046906,297.955231 158.902542,297.997833 
	C160.050156,298.004974 161.197845,297.998840 162.676193,297.998840 
	C162.676193,307.303101 162.676193,316.348236 162.676193,325.820801 
	C154.563980,325.820801 146.637756,325.820801 138.365189,325.820801 
	C138.208832,327.597076 138.086716,328.984528 137.927048,330.798462 
	C141.488617,330.798462 144.761292,330.798462 147.826355,330.798462 
	C151.781265,338.607147 149.715088,342.104004 141.388779,341.959198 
	C133.447678,341.821075 125.512878,341.334259 117.574257,341.027832 
	C115.113037,340.932831 112.648399,340.926331 109.915344,340.613708 
	C109.645370,340.348053 109.824318,340.172180 110.381920,340.104370 
	C122.966301,340.003082 134.993073,339.969574 147.311157,339.665314 
	C147.602448,337.133209 147.602448,334.871857 147.602448,332.004181 
	C145.137405,332.004181 143.009033,331.925659 140.888840,332.023865 
	C138.186035,332.149109 136.968353,331.103027 136.966873,328.257843 
	C136.965393,325.412537 137.748901,323.824829 140.917145,323.996155 
	C143.574982,324.139862 146.271545,324.217896 148.903870,323.915314 
	C150.275803,323.757660 151.546082,322.715607 152.862274,322.073059 
	C153.041245,322.063080 153.220200,322.053131 153.728271,322.424500 
	C155.965469,323.493317 157.851791,324.549072 159.793640,324.663666 
	C160.450928,324.702454 161.836823,322.381714 161.882294,321.103424 
	C162.100433,314.971191 161.891632,308.825195 162.005020,302.687256 
	C162.058243,299.806274 160.746964,298.962219 158.081390,298.988251 
	C155.548462,299.013031 153.965439,299.528137 154.042267,302.550049 
	C154.156052,307.026062 153.998840,311.508972 153.957016,315.988953 
z"/>
<path fill="#BA6D5E" opacity="1.000000" stroke="none" 
	d="
M156.462830,196.218170 
	C156.798233,196.963303 157.179062,198.034607 156.839630,198.776276 
	C150.877884,211.802704 150.525696,225.070908 154.831604,238.611542 
	C155.216675,239.822479 155.111343,241.189346 155.041473,242.755463 
	C153.237411,238.044449 150.713348,233.153442 150.201584,228.060242 
	C149.096619,217.063644 149.862579,206.126160 156.462830,196.218170 
z"/>
<path fill="#BA6D5E" opacity="1.000000" stroke="none" 
	d="
M185.184479,340.069641 
	C185.139984,331.596405 185.095474,323.123199 185.546967,314.259705 
	C186.868866,313.901550 187.712540,314.058899 188.517776,313.944855 
	C192.846786,313.331909 194.510605,315.080566 194.128693,319.476288 
	C193.800797,323.250214 194.062805,327.075134 194.058929,330.877502 
	C194.049835,339.824615 194.048615,339.824615 185.184479,340.069641 
M192.881393,326.525177 
	C192.853790,323.703735 193.133499,320.828064 192.650116,318.087006 
	C192.451645,316.961578 190.607666,316.126343 189.512192,315.159088 
	C188.646271,316.155487 187.071045,317.124542 187.031387,318.152802 
	C186.801300,324.119080 186.782654,330.106964 187.088150,336.067261 
	C187.139572,337.070618 189.009277,338.424561 190.256119,338.730194 
	C190.854034,338.876801 192.569397,337.035919 192.715485,335.951843 
	C193.089279,333.178192 192.866821,330.324188 192.881393,326.525177 
z"/>
<path fill="#B76F61" opacity="1.000000" stroke="none" 
	d="
M223.873611,144.602661 
	C221.179306,144.587204 218.256607,144.399796 215.386673,143.905853 
	C203.778854,141.908020 192.317230,143.321518 180.425964,144.965607 
	C179.974915,144.535980 179.963806,144.350677 179.952698,144.165375 
	C189.976898,139.342041 200.569336,140.774963 211.027924,141.603958 
	C215.285995,141.941452 219.458206,143.362015 223.873611,144.602661 
z"/>
<path fill="#FD5D3C" opacity="1.000000" stroke="none" 
	d="
M204.627777,303.039612 
	C204.352036,307.369568 203.742722,311.839417 203.043518,316.715088 
	C201.994232,314.358826 201.034851,311.596802 199.761551,307.931030 
	C193.411438,307.931030 186.020020,307.931030 178.588440,307.633759 
	C184.821198,307.220886 191.094131,307.023651 197.366989,307.026428 
	C200.221664,307.027679 202.001999,306.622986 201.987411,303.027496 
	C201.972992,299.477631 200.271713,299.038330 197.380432,299.005554 
	C190.792999,298.930908 184.208511,298.598297 177.622818,298.370544 
	C185.907822,298.370544 194.192825,298.370544 202.595535,298.370544 
	C202.891678,300.046326 203.191650,301.755829 203.511887,303.461517 
	C203.517731,303.492737 203.781891,303.520782 203.895538,303.475281 
	C204.044083,303.415833 204.162704,303.281586 204.627777,303.039612 
z"/>
<path fill="#C76A58" opacity="1.000000" stroke="none" 
	d="
M179.571823,144.113373 
	C179.963806,144.350677 179.974915,144.535980 179.996872,145.001541 
	C175.842148,147.293243 171.639557,149.232819 167.528839,151.350693 
	C165.827011,152.227478 164.321915,153.486099 162.300735,154.861359 
	C164.115494,155.911621 165.318466,156.607819 166.631104,157.573792 
	C163.835190,157.843552 160.929596,157.843552 156.683899,157.843552 
	C163.027466,149.518646 170.865372,146.398254 179.571823,144.113373 
z"/>
<path fill="#FD5739" opacity="1.000000" stroke="none" 
	d="
M185.350800,340.452087 
	C194.048615,339.824615 194.049835,339.824615 194.058929,330.877502 
	C194.062805,327.075134 193.800797,323.250214 194.128693,319.476288 
	C194.510605,315.080566 192.846786,313.331909 188.517776,313.944855 
	C187.712540,314.058899 186.868866,313.901550 185.598846,313.849152 
	C187.079773,313.250214 189.143906,311.951965 190.891724,312.289886 
	C192.739426,312.647125 195.666290,314.487305 195.738480,315.809814 
	C196.186340,324.016296 195.963882,332.259369 195.963882,340.834534 
	C192.051178,340.834534 188.784149,340.834534 185.350800,340.452087 
z"/>
<path fill="#FD5D3C" opacity="1.000000" stroke="none" 
	d="
M176.957352,340.216827 
	C169.648163,343.542175 162.117889,341.924164 154.755524,340.722107 
	C153.552261,340.525665 152.234390,336.895264 152.250061,334.861847 
	C152.260056,333.564178 154.567230,331.253113 155.947495,331.173035 
	C162.421661,330.797607 168.931549,331.038055 175.458344,331.367615 
	C169.782379,331.779175 164.070023,331.758423 158.375900,332.070557 
	C156.943924,332.149048 155.570419,333.294189 154.129196,334.382263 
	C153.535843,338.489441 154.745117,340.270294 158.825027,340.035858 
	C164.218155,339.725952 169.637787,339.877197 175.364243,339.896667 
	C176.107422,340.047699 176.532379,340.132263 176.957352,340.216827 
z"/>
<path fill="#AD6E61" opacity="1.000000" stroke="none" 
	d="
M177.307602,298.490906 
	C184.208511,298.598297 190.792999,298.930908 197.380432,299.005554 
	C200.271713,299.038330 201.972992,299.477631 201.987411,303.027496 
	C202.001999,306.622986 200.221664,307.027679 197.366989,307.026428 
	C191.094131,307.023651 184.821198,307.220886 178.125336,307.471252 
	C177.465698,304.607758 177.229050,301.609528 177.307602,298.490906 
M197.118576,305.876495 
	C198.401840,304.799072 199.685089,303.721619 200.968353,302.644196 
	C199.640930,301.772522 198.354263,300.233185 196.978760,300.149231 
	C192.035645,299.847443 187.050430,299.848633 182.108749,300.165741 
	C180.768555,300.251740 179.525650,301.853607 178.238068,302.759735 
	C179.596008,303.802856 180.888550,305.624817 182.323944,305.745331 
	C186.922455,306.131378 191.573853,305.887451 197.118576,305.876495 
z"/>
<path fill="#BA6D5E" opacity="1.000000" stroke="none" 
	d="
M183.115036,271.466614 
	C185.564484,271.460571 188.239105,271.513672 190.766525,272.150726 
	C200.592636,274.627594 210.386215,274.803528 220.214630,271.847778 
	C220.269775,272.292023 220.324921,272.736298 220.380051,273.180542 
	C217.076294,273.790314 213.794846,274.665985 210.463379,274.945465 
	C205.852921,275.332275 201.204819,275.270386 196.170532,275.568726 
	C191.602997,274.422577 187.437790,273.108307 183.115036,271.466614 
z"/>
<path fill="#AD6E61" opacity="1.000000" stroke="none" 
	d="
M250.222290,300.085815 
	C243.047211,299.791748 243.037842,299.791718 243.018692,306.620209 
	C243.002045,312.551819 242.965622,318.483856 243.019882,324.414978 
	C243.069229,329.806152 243.647690,330.201630 249.635162,328.975403 
	C249.102737,329.898468 248.365585,331.560516 247.272720,331.842133 
	C245.621735,332.267517 243.722702,331.730347 241.814850,330.962646 
	C241.805313,322.751648 241.954437,315.180573 242.003128,307.608856 
	C242.060165,298.737213 242.022263,298.736969 250.865463,299.226440 
	C250.930756,299.595734 250.792419,299.857758 250.222290,300.085815 
z"/>
<path fill="#B76F61" opacity="1.000000" stroke="none" 
	d="
M177.126068,160.401215 
	C181.301071,161.085342 185.656052,162.080200 190.657669,163.342255 
	C193.435410,164.883682 195.566513,166.157898 198.610229,167.977798 
	C196.275223,168.953232 195.132172,169.430725 193.989105,169.908234 
	C193.159683,169.776825 192.330261,169.645432 191.238495,169.336349 
	C192.890839,168.002411 193.434799,167.000000 190.805740,166.006866 
	C186.284317,164.298889 181.803741,162.482697 177.126068,160.401215 
z"/>
<path fill="#D46954" opacity="1.000000" stroke="none" 
	d="
M223.981613,336.640839 
	C228.593384,327.863373 228.240036,325.350311 221.236328,317.424377 
	C223.743423,319.034760 227.537430,320.426422 228.671494,322.993256 
	C230.754532,327.707977 230.423523,332.939453 226.124237,336.978577 
	C225.571426,337.497925 225.138504,338.144928 224.305115,338.420898 
	C223.967331,337.619629 223.974472,337.130219 223.981613,336.640839 
z"/>
<path fill="#C76A58" opacity="1.000000" stroke="none" 
	d="
M155.214737,244.447388 
	C156.116669,244.621445 157.387222,244.892868 158.008102,245.678040 
	C162.637711,251.532501 167.138596,257.488739 171.763107,263.727020 
	C167.705780,260.341034 163.296814,256.890472 159.533569,252.839996 
	C157.537827,250.691895 156.663223,247.502182 155.214737,244.447388 
z"/>
<path fill="#AD6E61" opacity="1.000000" stroke="none" 
	d="
M223.635162,336.802917 
	C223.974472,337.130219 223.967331,337.619629 223.948578,338.472778 
	C222.948975,339.392822 221.952301,340.426514 220.974762,340.408752 
	C218.743561,340.368164 214.817215,340.233917 214.608398,339.389069 
	C213.919724,336.602753 212.225555,332.998352 216.568481,330.895569 
	C217.746887,330.324982 218.188690,328.233063 218.927399,326.444641 
	C222.307785,327.457886 221.019897,329.556030 219.570053,331.501251 
	C218.899521,332.400909 217.465332,332.847687 217.052597,333.794250 
	C216.516068,335.024750 216.329529,336.635651 216.672119,337.898407 
	C216.792603,338.342529 218.952087,338.481873 220.120178,338.321259 
	C221.217773,338.170319 222.235733,337.440247 223.635162,336.802917 
z"/>
<path fill="#BA6D5E" opacity="1.000000" stroke="none" 
	d="
M218.986237,309.485535 
	C219.098404,309.035217 219.260269,308.887939 219.391022,308.911743 
	C221.580795,309.309784 223.766678,309.729187 225.953430,310.143799 
	C225.319824,307.658539 224.686218,305.173309 224.026062,302.328186 
	C228.093842,303.269623 229.380341,306.442474 228.900558,310.252625 
	C228.772751,311.267548 226.623795,312.959381 225.744919,312.768127 
	C223.404251,312.258789 221.249893,310.893311 218.986237,309.485535 
z"/>
<path fill="#FD5D3C" opacity="1.000000" stroke="none" 
	d="
M250.780563,298.787415 
	C242.022263,298.736969 242.060165,298.737213 242.003128,307.608856 
	C241.954437,315.180573 241.805313,322.751648 241.543060,330.709106 
	C241.385529,320.222107 241.385529,309.349060 241.385529,298.348358 
	C244.534668,298.348358 247.615158,298.348358 250.780563,298.787415 
z"/>
<path fill="#AD6E61" opacity="1.000000" stroke="none" 
	d="
M154.170044,333.949158 
	C155.570419,333.294189 156.943924,332.149048 158.375900,332.070557 
	C164.070023,331.758423 169.782379,331.779175 175.918106,331.550690 
	C176.774307,334.190399 177.200409,336.956085 177.291931,339.969299 
	C176.532379,340.132263 176.107422,340.047699 175.360947,339.722687 
	C175.039444,339.482269 175.035965,339.132874 175.254791,338.809875 
	C175.998611,336.157166 176.759125,333.303528 173.179932,333.257904 
	C167.083878,333.180237 160.980255,333.696259 154.702362,333.959808 
	C154.524918,333.956818 154.170044,333.949158 154.170044,333.949158 
z"/>
<path fill="#C76A58" opacity="1.000000" stroke="none" 
	d="
M172.559265,177.083893 
	C169.147110,181.328201 165.396530,185.507416 161.326172,189.741776 
	C164.744537,185.537552 168.482681,181.278183 172.559265,177.083893 
z"/>
<path fill="#BA6D5E" opacity="1.000000" stroke="none" 
	d="
M221.986481,300.622101 
	C220.826218,300.578583 219.626022,300.157288 218.285675,299.443787 
	C219.412521,299.515808 220.679535,299.880096 221.986481,300.622101 
z"/>
<path fill="#FD5D3C" opacity="1.000000" stroke="none" 
	d="
M203.962433,319.322632 
	C204.457382,319.250885 204.989777,319.474548 205.741791,319.888733 
	C205.307556,319.925537 204.653702,319.771820 203.962433,319.322632 
z"/>
<path fill="#FD6040" opacity="1.000000" stroke="none" 
	d="
M245.898895,156.679535 
	C245.606964,156.487457 245.377426,155.991592 245.105896,155.223175 
	C245.363022,155.425674 245.662155,155.900696 245.898895,156.679535 
z"/>
<path fill="#FD6040" opacity="1.000000" stroke="none" 
	d="
M244.937134,154.652069 
	C244.570099,154.949738 244.085709,154.961533 243.237686,154.963943 
	C243.522629,154.758453 244.171188,154.562317 244.937134,154.652069 
z"/>
<path fill="#BA6D5E" opacity="1.000000" stroke="none" 
	d="
M223.924133,301.696869 
	C223.461670,301.824951 222.895004,301.649628 222.157547,301.222351 
	C222.597824,301.111420 223.208878,301.252441 223.924133,301.696869 
z"/>
<path fill="#000000" opacity="1.000000" stroke="none" 
	d="
M333.399719,234.120071 
	C327.155365,250.017746 315.007385,257.759583 299.185699,259.819763 
	C290.864807,260.903290 282.761414,257.958862 275.976929,253.240143 
	C264.671906,245.377289 258.961029,234.335373 258.911133,220.227570 
	C258.852631,203.672089 272.321411,187.595566 288.213409,183.931625 
	C309.929688,178.924896 330.521332,192.488876 334.878845,214.023026 
	C336.219696,220.649460 335.604156,227.308777 333.399719,234.120071 
M304.109131,197.709869 
	C299.995392,197.471603 295.824890,196.688538 291.779938,197.110229 
	C283.737579,197.948654 274.608643,206.465118 273.271332,214.767593 
	C271.763855,224.126755 273.242645,233.236938 281.175018,239.476013 
	C292.764832,248.591812 309.093475,247.219910 317.940674,234.457642 
	C321.507843,229.312012 324.098907,219.312485 319.607697,213.593658 
	C318.622314,214.677292 317.682922,215.815781 316.635162,216.843857 
	C312.513580,220.887985 306.577820,221.078751 301.892548,217.360001 
	C297.997009,214.268127 296.850098,208.645523 299.583496,204.020264 
	C300.854889,201.868820 302.901917,200.175766 304.109131,197.709869 
z"/>
<path fill="#FA5E45" opacity="1.000000" stroke="none" 
	d="
M194.118332,170.227005 
	C195.132172,169.430725 196.275223,168.953232 198.610229,167.977798 
	C195.566513,166.157898 193.435410,164.883682 191.028564,163.398010 
	C192.461182,160.409164 194.527100,157.782700 195.780701,154.813293 
	C197.124588,151.630035 199.052200,150.019302 202.473282,150.015411 
	C215.398666,150.000717 227.176727,153.662308 238.139771,160.495102 
	C241.816238,162.786484 246.075958,164.142090 250.451904,165.961121 
	C250.882736,179.022705 250.930756,192.048584 250.907379,205.538528 
	C248.424561,203.726074 245.644730,201.725143 243.687546,199.108826 
	C240.711975,195.131134 238.191788,190.793686 235.685425,186.488403 
	C231.511307,179.318298 224.006256,179.783463 217.340363,178.466904 
	C216.817245,178.363571 215.801987,180.752060 214.579010,182.393616 
	C213.567429,182.861984 212.992310,182.919189 212.371368,182.996918 
	C212.325531,183.017426 212.230469,183.049805 211.911072,182.821930 
	C206.727051,182.386932 201.862411,182.179840 196.997787,181.972733 
	C202.586090,176.126343 202.582367,176.132477 195.198914,171.643372 
	C194.804977,171.403854 194.561218,170.917328 194.118332,170.227005 
z"/>
<path fill="#010000" opacity="1.000000" stroke="none" 
	d="
M236.141342,199.944748 
	C236.551117,200.573318 236.960876,201.201889 237.688049,202.258301 
	C238.336487,203.195877 238.667511,203.705597 238.990204,204.519623 
	C239.378494,206.188614 239.775101,207.553253 240.186234,209.342560 
	C240.457321,217.124481 240.713882,224.481750 240.653381,232.042236 
	C239.945236,234.188309 239.554153,236.131180 239.163071,238.074036 
	C234.706802,245.404343 228.767624,251.192886 220.629013,255.638718 
	C217.082794,256.636871 214.164566,257.475067 211.188644,257.957031 
	C207.641464,258.531555 203.914276,259.587219 200.499771,259.020447 
	C195.173874,258.136414 190.045547,256.062195 184.833511,254.492310 
	C184.833511,254.492294 184.725388,254.236359 184.417938,253.944794 
	C183.114090,253.078415 182.117706,252.503601 181.121323,251.928802 
	C178.771606,249.785889 176.421890,247.642975 174.034668,244.832062 
	C173.463440,243.398468 172.929703,242.632874 172.395966,241.867264 
	C172.395966,241.867264 172.338348,241.666611 172.312775,241.292755 
	C170.806870,235.871811 169.196167,230.858063 167.893646,225.765488 
	C167.073868,222.560303 166.715790,219.237015 166.150574,215.966721 
	C167.852844,206.278442 172.090622,198.059555 180.033844,191.981918 
	C181.763397,190.658554 183.473099,189.309280 185.928986,187.959290 
	C190.124176,186.669800 193.582321,185.392975 197.499939,184.067932 
	C204.940063,184.691528 211.920731,185.363327 219.070007,186.340820 
	C221.482559,187.803024 223.726501,188.959518 226.138962,190.413239 
	C229.585434,193.788574 232.863388,196.866653 236.141342,199.944748 
M217.667160,242.829361 
	C218.160324,242.222198 218.653488,241.615036 219.750916,240.725662 
	C221.610626,238.269928 223.196121,235.531464 225.381638,233.411606 
	C231.865982,227.121979 232.961136,220.020157 227.994827,212.900925 
	C225.948685,214.161316 223.426498,215.039810 221.943314,216.795837 
	C219.997177,219.099976 218.107727,220.596161 214.398376,219.847992 
	C212.601364,218.886429 210.804352,217.924866 208.993179,217.006958 
	C208.993179,217.006958 209.036911,216.992981 209.014603,216.238007 
	C203.306732,208.678482 208.890518,203.030716 213.135880,196.955399 
	C208.346832,196.597672 204.336166,195.718185 200.495239,196.197876 
	C197.516388,196.569916 194.749619,198.639954 191.197830,200.024780 
	C183.781082,205.129532 179.690170,211.865341 179.504425,221.177567 
	C179.363220,228.256989 182.810394,233.270172 187.217194,238.772034 
	C189.818542,240.560928 192.419876,242.349823 195.393295,244.830124 
	C200.959091,244.945160 206.524872,245.060196 212.018677,245.205994 
	C212.018677,245.205994 212.051041,245.277283 212.723160,245.704224 
	C214.187271,244.816238 215.651382,243.928238 217.667160,242.829361 
z"/>
<path fill="#D46954" opacity="1.000000" stroke="none" 
	d="
M184.891235,254.811478 
	C190.045547,256.062195 195.173874,258.136414 200.499771,259.020447 
	C203.914276,259.587219 207.641464,258.531555 211.188644,257.957031 
	C214.164566,257.475067 217.082794,256.636871 220.447266,255.944763 
	C220.308426,256.703369 219.914230,257.744843 219.163971,258.202271 
	C210.920273,263.228149 192.498810,261.529907 184.891235,254.811478 
z"/>
<path fill="#BA6D5E" opacity="1.000000" stroke="none" 
	d="
M165.910187,216.300446 
	C166.715790,219.237015 167.073868,222.560303 167.893646,225.765488 
	C169.196167,230.858063 170.806870,235.871811 172.210449,241.272141 
	C171.173691,240.823120 169.781204,240.213867 169.323181,239.187576 
	C166.122421,232.015579 163.916687,224.630081 165.910187,216.300446 
z"/>
<path fill="#B76F61" opacity="1.000000" stroke="none" 
	d="
M197.040482,184.116119 
	C193.582321,185.392975 190.124176,186.669800 186.284485,187.888000 
	C189.358856,185.945984 192.814758,184.062622 196.634216,182.075989 
	C201.862411,182.179840 206.727051,182.386932 211.419830,182.803070 
	C206.512161,183.380112 201.776321,183.748123 197.040482,184.116119 
z"/>
<path fill="#BA6D5E" opacity="1.000000" stroke="none" 
	d="
M239.485611,237.946991 
	C239.554153,236.131180 239.945236,234.188309 240.902161,231.773224 
	C241.640457,224.386871 241.812943,217.472763 241.985413,210.558655 
	C245.917099,216.786774 244.728546,231.668457 239.485611,237.946991 
z"/>
<path fill="#C76A58" opacity="1.000000" stroke="none" 
	d="
M236.369110,199.823517 
	C232.863388,196.866653 229.585434,193.788574 226.148926,190.060074 
	C225.993988,188.938934 225.997589,188.468216 226.001205,187.997482 
	C229.675919,191.336914 233.367813,194.658112 236.980377,198.063492 
	C237.185333,198.256714 236.739716,199.140121 236.369110,199.823517 
z"/>
<path fill="#FA593F" opacity="1.000000" stroke="none" 
	d="
M241.996063,210.554672 
	C241.812943,217.472763 241.640457,224.386871 241.219208,231.569992 
	C240.713882,224.481750 240.457321,217.124481 240.418015,209.542755 
	C241.094666,209.719269 241.554062,210.120239 242.013458,210.521210 
	C242.013458,210.521194 242.006729,210.550690 241.996063,210.554672 
z"/>
<path fill="#B76F61" opacity="1.000000" stroke="none" 
	d="
M225.733704,187.783081 
	C225.997589,188.468216 225.993988,188.938934 225.980408,189.762848 
	C223.726501,188.959518 221.482559,187.803024 219.103149,186.080353 
	C218.981918,185.339508 218.996170,185.164856 219.005737,184.994797 
	C219.001022,184.999405 218.992188,185.012512 218.992188,185.012512 
	C221.150192,185.864563 223.308182,186.716629 225.733704,187.783081 
z"/>
<path fill="#BA6D5E" opacity="1.000000" stroke="none" 
	d="
M242.051331,210.112640 
	C241.554062,210.120239 241.094666,209.719269 240.403503,209.118103 
	C239.775101,207.553253 239.378494,206.188614 239.242599,204.482635 
	C239.671906,204.114700 239.840485,204.088058 240.009094,204.061432 
	C240.702454,205.942307 241.395828,207.823181 242.051331,210.112640 
z"/>
<path fill="#B76F61" opacity="1.000000" stroke="none" 
	d="
M212.417191,182.976395 
	C212.992310,182.919189 213.567429,182.861984 214.575317,182.775009 
	C216.220963,183.309326 217.433823,183.873413 218.819443,184.725006 
	C218.992188,185.012512 219.001022,184.999405 218.626251,184.978638 
	C216.306717,184.297379 214.361954,183.636887 212.417191,182.976395 
z"/>
<path fill="#D46954" opacity="1.000000" stroke="none" 
	d="
M181.194580,252.260651 
	C182.117706,252.503601 183.114090,253.078415 184.286469,253.899872 
	C183.397598,253.628510 182.332718,253.110504 181.194580,252.260651 
z"/>
<path fill="#BA6D5E" opacity="1.000000" stroke="none" 
	d="
M172.275299,242.166962 
	C172.929703,242.632874 173.463440,243.398468 173.932022,244.490143 
	C173.296127,244.033035 172.725403,243.249847 172.275299,242.166962 
z"/>
<path fill="#FA5E45" opacity="1.000000" stroke="none" 
	d="
M239.901810,203.771027 
	C239.840485,204.088058 239.671906,204.114700 239.250916,204.178314 
	C238.667511,203.705597 238.336487,203.195877 237.965881,202.363708 
	C238.549026,202.521057 239.171783,203.000839 239.901810,203.771027 
z"/>
<path fill="#BA6D5E" opacity="1.000000" stroke="none" 
	d="
M147.019852,339.936066 
	C134.993073,339.969574 122.966301,340.003082 110.471481,340.016541 
	C110.348763,337.047272 108.174736,332.576263 114.609077,333.033569 
	C115.022141,333.011627 114.993279,333.010773 114.709900,333.225800 
	C113.400070,334.668671 112.373619,335.896515 111.347168,337.124359 
	C112.714363,337.752930 114.029922,338.700500 115.461349,338.932220 
	C117.406303,339.247040 119.493126,339.297791 121.420181,338.935577 
	C123.285858,338.584869 125.026268,337.567719 126.821693,336.843292 
	C125.549950,335.566132 124.278198,334.288940 122.992035,333.011505 
	C122.977623,333.011230 122.962791,333.038971 122.962791,333.038971 
	C124.480354,332.844360 125.997917,332.649719 128.037399,332.223511 
	C128.559326,331.991913 129.015762,332.006470 129.015762,332.006470 
	C129.093948,339.010376 129.093933,339.020599 136.136093,339.028137 
	C139.422546,339.031647 142.709076,338.986938 146.480377,339.186127 
	C146.983414,339.584137 147.001633,339.760101 147.019852,339.936066 
z"/>
<path fill="#B76F61" opacity="1.000000" stroke="none" 
	d="
M153.989410,316.418457 
	C153.998840,311.508972 154.156052,307.026062 154.042267,302.550049 
	C153.965439,299.528137 155.548462,299.013031 158.081390,298.988251 
	C160.746964,298.962219 162.058243,299.806274 162.005020,302.687256 
	C161.891632,308.825195 162.100433,314.971191 161.882294,321.103424 
	C161.836823,322.381714 160.450928,324.702454 159.793640,324.663666 
	C157.851791,324.549072 155.965469,323.493317 153.996704,322.409546 
	C153.964584,320.291504 153.993179,318.569702 153.989410,316.418457 
M157.565933,300.153534 
	C156.700104,301.338531 155.145996,302.490265 155.086807,303.714233 
	C154.821579,309.200317 154.800156,314.717712 155.123962,320.198212 
	C155.199280,321.472656 156.972702,322.646790 157.964767,323.867065 
	C158.970413,322.655334 160.771118,321.489441 160.844086,320.223969 
	C161.160110,314.743225 161.123581,309.225800 160.849655,303.739960 
	C160.788025,302.505920 159.256531,301.345276 157.565933,300.153534 
z"/>
<path fill="#A87267" opacity="1.000000" stroke="none" 
	d="
M147.311157,339.665314 
	C147.001633,339.760101 146.983414,339.584137 146.941696,339.143555 
	C147.880875,334.092468 145.629501,332.508972 141.165024,333.050598 
	C137.340164,333.514587 135.839005,331.853424 135.804138,327.941650 
	C135.768478,323.942474 137.414093,322.684845 141.182587,322.789398 
	C144.812210,322.890045 148.455811,322.486847 152.477768,322.189026 
	C151.546082,322.715607 150.275803,323.757660 148.903870,323.915314 
	C146.271545,324.217896 143.574982,324.139862 140.917145,323.996155 
	C137.748901,323.824829 136.965393,325.412537 136.966873,328.257843 
	C136.968353,331.103027 138.186035,332.149109 140.888840,332.023865 
	C143.009033,331.925659 145.137405,332.004181 147.602448,332.004181 
	C147.602448,334.871857 147.602448,337.133209 147.311157,339.665314 
z"/>
<path fill="#A87267" opacity="1.000000" stroke="none" 
	d="
M129.039276,331.537659 
	C129.015762,332.006470 128.559326,331.991913 128.331619,331.980286 
	C128.065781,322.400818 127.980591,312.832672 128.043961,303.265533 
	C128.052734,301.942291 128.796188,300.623901 129.596283,299.436218 
	C129.993027,299.569153 130.000717,299.968506 130.000717,299.968506 
	C129.708740,305.206665 129.313492,310.441711 129.154205,315.683899 
	C128.998474,320.808441 129.083466,325.940247 129.039276,331.537659 
z"/>
<path fill="#AD6E61" opacity="1.000000" stroke="none" 
	d="
M130.468246,299.984039 
	C130.000717,299.968506 129.993027,299.569153 129.989700,299.369934 
	C134.921478,299.139130 139.865311,298.942627 144.784897,299.203552 
	C145.875381,299.261353 147.656998,300.866669 147.744934,301.878937 
	C147.881668,303.452332 149.478851,306.386505 145.471848,306.269379 
	C145.748306,304.677979 146.833801,303.198181 146.602753,301.965088 
	C146.447815,301.138062 144.453949,300.184845 143.234818,300.113892 
	C139.146774,299.875916 135.037140,300.008728 130.468246,299.984039 
z"/>
<path fill="#BF6D5C" opacity="1.000000" stroke="none" 
	d="
M115.029556,333.025482 
	C115.032585,323.231445 115.076271,313.423187 114.994034,303.615936 
	C114.969833,300.730774 115.459953,298.903473 119.024673,298.903351 
	C122.642395,298.903229 123.020760,300.843231 123.000481,303.668457 
	C122.932465,313.143402 122.969765,322.619080 122.964767,332.566711 
	C122.962791,333.038971 122.977623,333.011230 122.763763,332.664368 
	C122.366760,330.345398 122.042107,328.374512 122.025734,326.401062 
	C121.965019,319.081329 122.160667,311.754791 121.876434,304.445679 
	C121.820374,303.003967 120.062675,301.628387 119.089737,300.222321 
	C118.060287,301.572174 116.223282,302.875549 116.142418,304.280029 
	C115.808258,310.083557 116.128136,315.921143 115.964577,321.739410 
	C115.858795,325.502655 115.331627,329.254059 114.993279,333.010773 
	C114.993279,333.010773 115.022141,333.011627 115.029556,333.025482 
z"/>
<path fill="#F9583C" opacity="1.000000" stroke="none" 
	d="
M192.882111,327.013733 
	C192.866821,330.324188 193.089279,333.178192 192.715485,335.951843 
	C192.569397,337.035919 190.854034,338.876801 190.256119,338.730194 
	C189.009277,338.424561 187.139572,337.070618 187.088150,336.067261 
	C186.782654,330.106964 186.801300,324.119080 187.031387,318.152802 
	C187.071045,317.124542 188.646271,316.155487 189.512207,315.159119 
	C190.607666,316.126343 192.451645,316.961578 192.650116,318.087006 
	C193.133499,320.828064 192.853790,323.703735 192.882111,327.013733 
z"/>
<path fill="#BF6D5C" opacity="1.000000" stroke="none" 
	d="
M154.129196,334.382263 
	C154.170044,333.949158 154.524918,333.956818 154.732819,334.382599 
	C154.724838,337.989105 156.288223,339.119659 159.366730,339.057678 
	C164.587189,338.952606 169.812622,339.094696 175.035965,339.132874 
	C175.035965,339.132874 175.039444,339.482269 175.042740,339.656250 
	C169.637787,339.877197 164.218155,339.725952 158.825027,340.035858 
	C154.745117,340.270294 153.535843,338.489441 154.129196,334.382263 
z"/>
<path fill="#FD5739" opacity="1.000000" stroke="none" 
	d="
M196.661713,305.881592 
	C191.573853,305.887451 186.922455,306.131378 182.323944,305.745331 
	C180.888550,305.624817 179.596008,303.802856 178.238068,302.759735 
	C179.525650,301.853607 180.768555,300.251740 182.108749,300.165741 
	C187.050430,299.848633 192.035645,299.847443 196.978760,300.149231 
	C198.354263,300.233185 199.640930,301.772522 200.968353,302.644196 
	C199.685089,303.721619 198.401840,304.799072 196.661713,305.881592 
z"/>
<path fill="#F9583C" opacity="1.000000" stroke="none" 
	d="
M175.254791,338.809875 
	C169.812622,339.094696 164.587189,338.952606 159.366730,339.057678 
	C156.288223,339.119659 154.724838,337.989105 154.910263,334.385590 
	C160.980255,333.696259 167.083878,333.180237 173.179932,333.257904 
	C176.759125,333.303528 175.998611,336.157166 175.254791,338.809875 
z"/>
<path fill="#0097B2" opacity="1.000000" stroke="none" 
	d="
M304.353271,197.992401 
	C302.901917,200.175766 300.854889,201.868820 299.583496,204.020264 
	C296.850098,208.645523 297.997009,214.268127 301.892548,217.360001 
	C306.577820,221.078751 312.513580,220.887985 316.635162,216.843857 
	C317.682922,215.815781 318.622314,214.677292 319.607697,213.593658 
	C324.098907,219.312485 321.507843,229.312012 317.940674,234.457642 
	C309.093475,247.219910 292.764832,248.591812 281.175018,239.476013 
	C273.242645,233.236938 271.763855,224.126755 273.271332,214.767593 
	C274.608643,206.465118 283.737579,197.948654 291.779938,197.110229 
	C295.824890,196.688538 299.995392,197.471603 304.353271,197.992401 
z"/>
<path fill="#FD6040" opacity="1.000000" stroke="none" 
	d="
M212.371368,182.996918 
	C214.361954,183.636887 216.306717,184.297379 218.630951,184.974030 
	C218.996170,185.164856 218.981918,185.339508 218.934509,185.774658 
	C211.920731,185.363327 204.940063,184.691528 197.499939,184.067932 
	C201.776321,183.748123 206.512161,183.380112 211.739227,183.030945 
	C212.230469,183.049805 212.325531,183.017426 212.371368,182.996918 
z"/>
<path fill="#FA5C42" opacity="1.000000" stroke="none" 
	d="
M187.082870,238.136963 
	C182.810394,233.270172 179.363220,228.256989 179.504425,221.177567 
	C179.690170,211.865341 183.781082,205.129532 191.958191,200.014130 
	C197.907318,199.572830 202.946075,195.981476 208.468292,198.989044 
	C202.650345,209.140167 202.828354,213.488342 209.036911,216.992981 
	C209.036911,216.992981 208.993179,217.006958 209.032013,217.326660 
	C211.057907,218.482330 213.044952,219.318283 215.032013,220.154236 
	C218.107727,220.596161 219.997177,219.099976 221.943314,216.795837 
	C223.426498,215.039810 225.948685,214.161316 227.994827,212.900925 
	C232.961136,220.020157 231.865982,227.121979 225.381638,233.411606 
	C223.196121,235.531464 221.610626,238.269928 219.079910,240.843903 
	C217.171204,241.655533 215.933502,242.348923 214.645096,243.034424 
	C214.594391,243.026535 214.497726,242.992035 214.043793,242.960266 
	C204.934509,244.851013 196.758698,244.234909 189.467316,238.538910 
	C188.908722,238.102539 187.888504,238.257080 187.082870,238.136963 
z"/>
<path fill="#BF6D5C" opacity="1.000000" stroke="none" 
	d="
M209.025757,216.615494 
	C202.828354,213.488342 202.650345,209.140167 208.468292,198.989044 
	C202.946075,195.981476 197.907318,199.572830 192.303558,199.979340 
	C194.749619,198.639954 197.516388,196.569916 200.495239,196.197876 
	C204.336166,195.718185 208.346832,196.597672 213.135880,196.955399 
	C208.890518,203.030716 203.306732,208.678482 209.025757,216.615494 
z"/>
<path fill="#BA6D5E" opacity="1.000000" stroke="none" 
	d="
M187.150024,238.454498 
	C187.888504,238.257080 188.908722,238.102539 189.467316,238.538910 
	C196.758698,244.234909 204.934509,244.851013 213.778702,243.180756 
	C213.328705,244.047775 212.689865,244.662521 212.051025,245.277283 
	C212.051041,245.277283 212.018677,245.205994 211.588989,245.140976 
	C205.779953,244.763550 200.400574,244.451141 195.021210,244.138733 
	C192.419876,242.349823 189.818542,240.560928 187.150024,238.454498 
z"/>
<path fill="#FD5D3C" opacity="1.000000" stroke="none" 
	d="
M195.207245,244.484436 
	C200.400574,244.451141 205.779953,244.763550 211.625000,245.125595 
	C206.524872,245.060196 200.959091,244.945160 195.207245,244.484436 
z"/>
<path fill="#BF6D5C" opacity="1.000000" stroke="none" 
	d="
M214.715195,220.001114 
	C213.044952,219.318283 211.057907,218.482330 209.039093,217.304840 
	C210.804352,217.924866 212.601364,218.886429 214.715195,220.001114 
z"/>
<path fill="#FD5D3C" opacity="1.000000" stroke="none" 
	d="
M212.387085,245.490753 
	C212.689865,244.662521 213.328705,244.047775 214.232635,243.212524 
	C214.497726,242.992035 214.594391,243.026535 215.051804,243.030975 
	C216.044647,243.037033 216.580078,243.038651 217.115509,243.040253 
	C215.651382,243.928238 214.187271,244.816238 212.387085,245.490753 
z"/>
<path fill="#BA6D5E" opacity="1.000000" stroke="none" 
	d="
M217.391327,242.934814 
	C216.580078,243.038651 216.044647,243.037033 215.102509,243.038879 
	C215.933502,242.348923 217.171204,241.655533 218.777771,240.985001 
	C218.653488,241.615036 218.160324,242.222198 217.391327,242.934814 
z"/>
<path fill="#FB5B3E" opacity="1.000000" stroke="none" 
	d="
M114.709900,333.225800 
	C115.331627,329.254059 115.858795,325.502655 115.964577,321.739410 
	C116.128136,315.921143 115.808258,310.083557 116.142418,304.280029 
	C116.223282,302.875549 118.060287,301.572174 119.089737,300.222321 
	C120.062675,301.628387 121.820374,303.003967 121.876434,304.445679 
	C122.160667,311.754791 121.965019,319.081329 122.025734,326.401062 
	C122.042107,328.374512 122.366760,330.345398 122.778168,332.664612 
	C124.278198,334.288940 125.549950,335.566132 126.821693,336.843292 
	C125.026268,337.567719 123.285858,338.584869 121.420181,338.935577 
	C119.493126,339.297791 117.406303,339.247040 115.461349,338.932220 
	C114.029922,338.700500 112.714363,337.752930 111.347168,337.124359 
	C112.373619,335.896515 113.400070,334.668671 114.709900,333.225800 
z"/>
<path fill="#FA593F" opacity="1.000000" stroke="none" 
	d="
M157.983810,300.152191 
	C159.256531,301.345276 160.788025,302.505920 160.849655,303.739960 
	C161.123581,309.225800 161.160110,314.743225 160.844086,320.223969 
	C160.771118,321.489441 158.970413,322.655334 157.964783,323.867065 
	C156.972702,322.646790 155.199280,321.472656 155.123962,320.198212 
	C154.800156,314.717712 154.821579,309.200317 155.086807,303.714233 
	C155.145996,302.490265 156.700104,301.338531 157.983810,300.152191 
z"/>
</svg>